<?xml version="1.0" standalone="no"?>
<!DOCTYPE svg PUBLIC "-//W3C//DTD SVG 20010904//EN"
 "http://www.w3.org/TR/2001/REC-SVG-20010904/DTD/svg10.dtd">
<svg version="1.0" xmlns="http://www.w3.org/2000/svg"
 width="556.000000pt" height="556.000000pt" viewBox="0 0 556.000000 556.000000"
 preserveAspectRatio="xMidYMid meet">
<metadata>
Created by potrace 1.11, written by Peter Selinger 2001-2013
</metadata>
<g transform="translate(0.000000,556.000000) scale(0.100000,-0.100000)"
fill="#000000" stroke="none">
<path d="M3895 4085 c-49 -13 -153 -40 -230 -60 -77 -20 -187 -48 -245 -62
-58 -13 -114 -28 -125 -34 -11 -5 -60 -18 -108 -29 -159 -36 -219 -82 -233
-177 -18 -123 67 -233 180 -233 38 0 247 45 281 60 11 5 52 16 90 25 39 9 78
18 88 21 16 5 17 -38 17 -809 l0 -815 -237 -5 c-268 -5 -317 -14 -370 -69 -41
-42 -57 -110 -43 -174 15 -65 35 -90 98 -121 l57 -28 660 -3 c553 -3 671 -1
725 12 36 8 103 17 150 20 158 11 268 58 368 159 114 115 202 293 241 484 18
87 21 138 21 365 0 343 -16 431 -112 625 -93 186 -203 299 -346 354 -80 31
-269 38 -362 14 -183 -47 -322 -185 -426 -423 l-34 -77 0 503 c0 276 -3 502
-7 501 -5 -1 -48 -11 -98 -24z m852 -801 c64 -31 109 -84 157 -183 62 -130 71
-191 71 -491 0 -221 -3 -278 -18 -343 -22 -94 -73 -199 -127 -260 -72 -81
-181 -118 -248 -83 -15 8 -54 21 -86 30 -73 19 -101 45 -153 144 -79 147 -85
188 -81 545 4 306 4 313 29 378 47 121 114 216 184 259 73 45 183 46 272 4z
m-706 -1251 l28 -63 -35 0 -34 0 1 78 c0 42 3 70 6 62 3 -8 18 -43 34 -77z"/>
<path d="M1317 4084 c-4 -4 -66 -22 -139 -40 -73 -18 -194 -48 -268 -67 -74
-20 -196 -51 -270 -70 -182 -46 -248 -78 -277 -137 -52 -101 -7 -233 94 -276
57 -24 64 -23 363 54 63 16 127 32 143 36 l27 6 0 -805 0 -805 -225 0 c-258 0
-307 -7 -363 -55 -90 -77 -75 -243 27 -295 71 -36 172 -41 806 -40 420 1 625
-2 659 -10 71 -16 221 -13 290 5 164 43 284 152 382 348 94 186 114 295 114
617 0 322 -20 431 -113 617 -110 218 -244 334 -418 363 -262 42 -466 -44 -602
-256 -79 -124 -141 -283 -157 -404 -4 -30 -8 232 -9 583 l-1 637 -28 0 c-16 0
-32 -3 -35 -6z m807 -856 c57 -17 143 -106 183 -188 62 -131 68 -175 68 -490
0 -247 -2 -294 -19 -355 -25 -94 -65 -170 -120 -232 -51 -56 -98 -83 -166 -94
-43 -6 -46 -5 -92 40 -40 39 -58 48 -115 61 l-68 15 -42 85 c-69 137 -73 166
-73 485 0 317 4 347 70 481 44 90 122 172 181 191 47 15 143 15 193 1z m-696
-1150 c11 -31 25 -65 31 -77 11 -20 9 -21 -34 -21 l-45 0 1 153 1 152 13 -75
c7 -41 22 -100 33 -132z"/>
</g>
</svg>
